<?xml version="1.0" encoding="UTF-8"?>
<svg version="1.1" xmlns="http://www.w3.org/2000/svg" width="225" height="225">
<path d="M0 0 C74.25 0 148.5 0 225 0 C225 74.25 225 148.5 225 225 C150.75 225 76.5 225 0 225 C0 150.75 0 76.5 0 0 Z " fill="#E0E0E0" transform="translate(0,0)"/>
<path d="M0 0 C2.6875 0.3125 2.6875 0.3125 5 2.125 C6.6875 4.3125 6.6875 4.3125 6.6875 7.3125 C7.47125 7.27125 8.255 7.23 9.0625 7.1875 C11.6875 7.3125 11.6875 7.3125 13.6875 9.3125 C13.5625 11.3125 13.5625 11.3125 12.6875 13.3125 C9.76348231 15.40108407 7.22376841 15.68473878 3.6875 15.3125 C1.6875 13.3125 1.6875 13.3125 1.4921875 10.9296875 C1.51539063 10.02476563 1.53859375 9.11984375 1.5625 8.1875 C1.58054688 7.27742188 1.59859375 6.36734375 1.6171875 5.4296875 C1.64039063 4.73101562 1.66359375 4.03234375 1.6875 3.3125 C1.0275 3.6425 0.3675 3.9725 -0.3125 4.3125 C-0.78251033 7.58805608 -0.78251033 7.58805608 -0.9375 11.375 C-1.01226562 12.66535156 -1.08703125 13.95570312 -1.1640625 15.28515625 C-1.21304688 16.28417969 -1.26203125 17.28320312 -1.3125 18.3125 C-0.68601563 18.30089844 -0.05953125 18.28929688 0.5859375 18.27734375 C1.40320313 18.26832031 2.22046875 18.25929688 3.0625 18.25 C3.87460938 18.23839844 4.68671875 18.22679688 5.5234375 18.21484375 C7.6875 18.3125 7.6875 18.3125 9.6875 19.3125 C9.3575 24.5925 9.0275 29.8725 8.6875 35.3125 C11.75276913 32.24723087 12.32782536 30.92560834 13.5625 26.9375 C15.17304052 22.33159813 16.54506151 19.17275515 20.6875 16.3125 C24.82974306 15.73258597 26.16925489 15.96700326 29.6875 18.3125 C31.3375 18.6425 32.9875 18.9725 34.6875 19.3125 C34.3575 24.5925 34.0275 29.8725 33.6875 35.3125 C36.4427086 32.5572914 37.4215486 31.08321195 38.875 27.625 C39.39126953 26.41263672 39.39126953 26.41263672 39.91796875 25.17578125 C40.17191406 24.56089844 40.42585938 23.94601563 40.6875 23.3125 C41.3475 23.3125 42.0075 23.3125 42.6875 23.3125 C42.35358271 29.54562273 41.18327332 34.70911508 36.6875 39.3125 C33.35748307 39.90015005 31.69300681 39.81525341 28.6875 38.3125 C27.635625 39.5809375 27.635625 39.5809375 26.5625 40.875 C23.6875 43.3125 23.6875 43.3125 20.625 43.4375 C17.07526294 42.07802623 15.77027843 40.43666764 13.6875 37.3125 C13.0275 37.9725 12.3675 38.6325 11.6875 39.3125 C8.75 39.75 8.75 39.75 5.6875 39.3125 C2.7236829 35.54914155 2.34468524 32.71121445 2.5 28 C2.54060547 26.39705078 2.54060547 26.39705078 2.58203125 24.76171875 C2.61683594 23.95347656 2.65164062 23.14523438 2.6875 22.3125 C1.3675 22.3125 0.0475 22.3125 -1.3125 22.3125 C-1.29678955 22.87235596 -1.2810791 23.43221191 -1.26489258 24.0090332 C-1.20250152 26.5475859 -1.16349782 29.08597729 -1.125 31.625 C-1.09986328 32.50607422 -1.07472656 33.38714844 -1.04882812 34.29492188 C-1.03916016 35.14248047 -1.02949219 35.99003906 -1.01953125 36.86328125 C-1.0038208 37.64356689 -0.98811035 38.42385254 -0.97192383 39.2277832 C-1.3125 41.3125 -1.3125 41.3125 -2.58081055 43.09057617 C-4.3125 44.3125 -4.3125 44.3125 -8.3125 44.3125 C-8.6425 42.0025 -8.9725 39.6925 -9.3125 37.3125 C-9.9725 37.9725 -10.6325 38.6325 -11.3125 39.3125 C-16.64583333 39.64583333 -16.64583333 39.64583333 -19.3125 38.3125 C-20.364375 39.5809375 -20.364375 39.5809375 -21.4375 40.875 C-24.3125 43.3125 -24.3125 43.3125 -27.4375 43.4375 C-31.09772451 42.00523824 -31.66148807 40.83529872 -33.3125 37.3125 C-33.7109375 33.9375 -33.7109375 33.9375 -33.6875 30.3125 C-33.69523437 29.11625 -33.70296875 27.92 -33.7109375 26.6875 C-33.28224271 23.05620296 -32.51049261 21.20187995 -30.3125 18.3125 C-26.84251271 15.99917514 -25.38740752 15.97292437 -21.3125 16.3125 C-20.3225 16.9725 -19.3325 17.6325 -18.3125 18.3125 C-16.6625 18.6425 -15.0125 18.9725 -13.3125 19.3125 C-13.6425 24.5925 -13.9725 29.8725 -14.3125 35.3125 C-10.88999171 31.88999171 -9.47015982 29.51973744 -9.125 24.6875 C-9.22841688 22.16377745 -9.22841688 22.16377745 -10.3125 19.3125 C-9.3225 19.3125 -8.3325 19.3125 -7.3125 19.3125 C-7.35890625 18.51585938 -7.4053125 17.71921875 -7.453125 16.8984375 C-7.67691996 10.32845697 -7.76321876 6.30269982 -3.3125 1.3125 C-2.3125 0.3125 -2.3125 0.3125 0 0 Z " fill="#313131" transform="translate(140.3125,71.6875)"/>
<path d="M0 0 C3.19417345 2.64030162 3.92012621 3.34959911 4.4375 7.5625 C4 11 4 11 3 12.9375 C-0.26642246 14.67278693 -3.34351452 14.17982715 -7 14 C-7 13.01 -7 12.02 -7 11 C-5.35 10.34 -3.7 9.68 -2 9 C-2 8.34 -2 7.68 -2 7 C-12.54766853 0.91480661 -30.41872064 2.82945982 -41.8125 5.6875 C-50.09308297 8.05897179 -50.09308297 8.05897179 -57 13 C-58.57708829 16.13170767 -58.57708829 16.13170767 -59 19 C-54.986527 20.67738662 -50.9022739 22.02933912 -46.75 23.3125 C-46.05616211 23.5297876 -45.36232422 23.7470752 -44.64746094 23.97094727 C-40.97704344 25.11229739 -37.29968032 26.20611283 -33.59375 27.2265625 C-10.39273362 33.64806373 -10.39273362 33.64806373 -3.921875 42.26953125 C-2.46822716 44.99820071 -2.46584301 46.99536695 -3 50 C-4.30396963 53.33023617 -5.51946663 54.71974735 -8.75 56.25 C-21.09495414 61.20370771 -36.07008551 57.37553026 -48.08984375 52.83203125 C-53.36246723 50.3820453 -57.51014751 47.68374939 -61 43 C-61.80582888 39.43810093 -61.6660039 36.33200779 -60 33 C-56.72032242 31.36016121 -53.62861311 31.82154362 -50 32 C-54.75 36 -54.75 36 -57 36 C-56.75708111 39.03648609 -56.56911095 40.45466693 -55 43 C-51.25390993 45.62649934 -47.24199969 47.32151091 -43 49 C-42.15179688 49.34289062 -41.30359375 49.68578125 -40.4296875 50.0390625 C-34.36238161 52.07417764 -28.40369466 52.27065971 -22.0625 52.3125 C-21.23290771 52.31813965 -20.40331543 52.3237793 -19.54858398 52.32958984 C-15.40540184 52.27961586 -12.67247206 52.07095064 -9 50 C-8.87055003 47.16461093 -8.87055003 47.16461093 -10 44 C-15.70322179 38.80620765 -23.5334766 37.01183478 -30.75 34.9375 C-32.97437569 34.28136114 -35.19833673 33.62381489 -37.421875 32.96484375 C-38.51000488 32.64290039 -39.59813477 32.32095703 -40.71923828 31.98925781 C-59.74877477 26.25122523 -59.74877477 26.25122523 -66 20 C-66.5969565 15.65074549 -66.18832518 13.3701564 -64.1875 9.4375 C-51.23164455 -6.52468655 -17.46707833 -8.61390164 0 0 Z " fill="#272727" transform="translate(106,60)"/>
<path d="M0 0 C0.99 0.66 1.98 1.32 3 2 C5.475 2.495 5.475 2.495 8 3 C7.67 8.28 7.34 13.56 7 19 C9.7552086 16.2447914 10.7340486 14.77071195 12.1875 11.3125 C12.53167969 10.50425781 12.87585938 9.69601563 13.23046875 8.86328125 C13.48441406 8.24839844 13.73835938 7.63351563 14 7 C14.66 7 15.32 7 16 7 C15.66608271 13.23312273 14.49577332 18.39661508 10 23 C6.66998307 23.58765005 5.00550681 23.50275341 2 22 C1.29875 22.845625 0.5975 23.69125 -0.125 24.5625 C-3 27 -3 27 -6.125 27.125 C-9.67430719 25.73614067 -10.48981316 24.43987003 -12 21 C-12 20.34 -12 19.68 -12 19 C-12.99 19 -13.98 19 -15 19 C-13.93115122 12.92443853 -12.48948088 7.17833996 -9 2 C-5.53001271 -0.31332486 -4.07490752 -0.33957563 0 0 Z " fill="#242424" transform="translate(167,88)"/>
<path d="M0 0 C0.99 0.66 1.98 1.32 3 2 C5.475 2.495 5.475 2.495 8 3 C8 8.28 8 13.56 8 19 C9.32 19.33 10.64 19.66 12 20 C11.34 20.99 10.68 21.98 10 23 C6.92078868 23.25660094 4.78863007 23.39431504 2 22 C1.29875 22.845625 0.5975 23.69125 -0.125 24.5625 C-3 27 -3 27 -6.125 27.125 C-9.78522451 25.69273824 -10.34898807 24.52279872 -12 21 C-12.3984375 17.625 -12.3984375 17.625 -12.375 14 C-12.38273437 12.80375 -12.39046875 11.6075 -12.3984375 10.375 C-11.96974271 6.74370296 -11.19799261 4.88937995 -9 2 C-5.53001271 -0.31332486 -4.07490752 -0.33957563 0 0 Z " fill="#242424" transform="translate(119,88)"/>
<path d="M0 0 C-0.33 5.28 -0.66 10.56 -1 16 C-0.01 15.67 0.98 15.34 2 15 C2.66 15.33 3.32 15.66 4 16 C3.34 17.32 2.68 18.64 2 20 C-0.875 20.125 -0.875 20.125 -4 20 C-6 18 -6 18 -6.1953125 14.3046875 C-6.182009 12.82799892 -6.15814835 11.35137642 -6.125 9.875 C-6.11597656 9.12089844 -6.10695312 8.36679688 -6.09765625 7.58984375 C-6.0740687 5.72642746 -6.03819719 3.86317407 -6 2 C-7.65 2 -9.3 2 -11 2 C-11 1.34 -11 0.68 -11 0 C-6.64425167 -1.15299221 -4.83348343 -0.80558057 0 0 Z " fill="#232323" transform="translate(150,91)"/>
<path d="M0 0 C0.99 0 1.98 0 3 0 C4.95907329 3.91814658 4.36124833 8.71920726 4 13 C2.5 16.6875 2.5 16.6875 1 19 C-0.32 19 -1.64 19 -3 19 C-4.78242662 13.65272015 -4.70370144 8.71336004 -2.5625 3.5 C-1 1 -1 1 0 0 Z " fill="#D4D4D4" transform="translate(164,92)"/>
<path d="M0 0 C0.99 0 1.98 0 3 0 C4.95907329 3.91814658 4.36124833 8.71920726 4 13 C2.5 16.6875 2.5 16.6875 1 19 C-0.9375 18.625 -0.9375 18.625 -3 18 C-4.85782969 14.28434062 -4.5779523 9.85795708 -3.36328125 5.953125 C-1.46034946 1.46034946 -1.46034946 1.46034946 0 0 Z " fill="#D4D4D4" transform="translate(116,92)"/>
<path d="M0 0 C1.32 0.33 2.64 0.66 4 1 C4.33 2.32 4.66 3.64 5 5 C5.78375 4.95875 6.5675 4.9175 7.375 4.875 C10 5 10 5 12 7 C11.875 9 11.875 9 11 11 C8.07598231 13.08858407 5.53626841 13.37223878 2 13 C0 11 0 11 -0.1953125 8.3984375 C-0.17210937 7.40070313 -0.14890625 6.40296875 -0.125 5.375 C-0.10695312 4.37210937 -0.08890625 3.36921875 -0.0703125 2.3359375 C-0.04710937 1.56507812 -0.02390625 0.79421875 0 0 Z " fill="#272727" transform="translate(142,74)"/>
<path d="M0 0 C2.475 0.99 2.475 0.99 5 2 C4.56826373 7.09448798 4.24599784 10.84512277 1 15 C0.34 15 -0.32 15 -1 15 C-1.18451025 4.44191344 -1.18451025 4.44191344 0 0 Z " fill="#D1D1D1" transform="translate(127,92)"/>
<path d="M0 0 C0.33 1.32 0.66 2.64 1 4 C2.65 4 4.3 4 6 4 C6.625 6.875 6.625 6.875 7 10 C6.34 10.66 5.68 11.32 5 12 C3.35 11.67 1.7 11.34 0 11 C0 7.37 0 3.74 0 0 Z " fill="#525252" transform="translate(114,131)"/>
<path d="M0 0 C0.33 0.99 0.66 1.98 1 3 C2.32 2.01 3.64 1.02 5 0 C4.773125 0.763125 4.54625 1.52625 4.3125 2.3125 C4.209375 3.199375 4.10625 4.08625 4 5 C5.35405861 6.60411246 5.35405861 6.60411246 7 8 C7.6875 10.1875 7.6875 10.1875 8 12 C7.34 12 6.68 12 6 12 C3 8.53846154 3 8.53846154 3 6 C1.68 6.33 0.36 6.66 -1 7 C-0.67 4.69 -0.34 2.38 0 0 Z " fill="#434343" transform="translate(99,130)"/>
<path d="M0 0 C0.66 0 1.32 0 2 0 C2 2.31 2 4.62 2 7 C3.32 7.66 4.64 8.32 6 9 C5.67 9.66 5.34 10.32 5 11 C4.34 10.34 3.68 9.68 3 9 C2.67 9.66 2.34 10.32 2 11 C1.34 11 0.68 11 0 11 C0 7.37 0 3.74 0 0 Z " fill="#636363" transform="translate(134,131)"/>
<path d="M0 0 C0.99 0.99 1.98 1.98 3 3 C2.34 4.65 1.68 6.3 1 8 C0.34 8 -0.32 8 -1 8 C-1.625 5.125 -1.625 5.125 -2 2 C-1.34 1.34 -0.68 0.68 0 0 Z " fill="#9F9F9F" transform="translate(121,169)"/>
<path d="M0 0 C1 3 1 3 1 6 C-0.65 6 -2.3 6 -4 6 C-4.33 4.35 -4.66 2.7 -5 1 C-3 0 -3 0 0 0 Z " fill="#939393" transform="translate(102,136)"/>
<path d="M0 0 C1.67542976 0.28604898 3.34385343 0.61781233 5 1 C5 1.66 5 2.32 5 3 C3.35 3 1.7 3 0 3 C1.63412443 4.70840281 2.86906094 5.93453047 5 7 C3.125 7.625 3.125 7.625 1 8 C-1 6 -1 6 -1.1875 3.4375 C-1 1 -1 1 0 0 Z " fill="#7D7D7D" transform="translate(85,135)"/>
<path d="M0 0 C0 1.98 0 3.96 0 6 C-1.65 6.33 -3.3 6.66 -5 7 C-5.33 6.01 -5.66 5.02 -6 4 C-1.125 0 -1.125 0 0 0 Z " fill="#757575" transform="translate(72,136)"/>
<path d="M0 0 C0 1.98 0 3.96 0 6 C-1.32 6.33 -2.64 6.66 -4 7 C-4.33 5.68 -4.66 4.36 -5 3 C-1.125 0 -1.125 0 0 0 Z " fill="#787878" transform="translate(130,136)"/>
<path d="M0 0 C0.99 0 1.98 0 3 0 C3 1.65 3 3.3 3 5 C2.01 5.495 2.01 5.495 1 6 C0.34 5.67 -0.32 5.34 -1 5 C-0.67 3.35 -0.34 1.7 0 0 Z " fill="#E0E0E0" transform="translate(116,136)"/>
<path d="M0 0 C-0.3125 1.875 -0.3125 1.875 -1 4 C-1.99 4.66 -2.98 5.32 -4 6 C-4.99 5.67 -5.98 5.34 -7 5 C-2.25 0 -2.25 0 0 0 Z " fill="#1C1C1C" transform="translate(120,109)"/>
<path d="M0 0 C1.32 0.99 2.64 1.98 4 3 C4.33 2.01 4.66 1.02 5 0 C5.33 0.66 5.66 1.32 6 2 C4.68 3.65 3.36 5.3 2 7 C0.5393715 4.35261084 0 3.10551666 0 0 Z " fill="#727272" transform="translate(162,136)"/>
<path d="M0 0 C0.66 0 1.32 0 2 0 C2 2.97 2 5.94 2 9 C0.4375 7.3125 0.4375 7.3125 -1 5 C-0.6875 2.25 -0.6875 2.25 0 0 Z " fill="#BDBDBD" transform="translate(140,75)"/>
</svg>
